<?xml version="1.0" encoding="utf-8"?>
<!-- Generator: Adobe Illustrator 23.0.1, SVG Export Plug-In . SVG Version: 6.00 Build 0)  -->
<!DOCTYPE svg PUBLIC "-//W3C//DTD SVG 1.1//EN" "http://www.w3.org/Graphics/SVG/1.1/DTD/svg11.dtd" [
	<!ENTITY ns_extend "http://ns.adobe.com/Extensibility/1.0/">
	<!ENTITY ns_ai "http://ns.adobe.com/AdobeIllustrator/10.0/">
	<!ENTITY ns_graphs "http://ns.adobe.com/Graphs/1.0/">
	<!ENTITY ns_vars "http://ns.adobe.com/Variables/1.0/">
	<!ENTITY ns_imrep "http://ns.adobe.com/ImageReplacement/1.0/">
	<!ENTITY ns_sfw "http://ns.adobe.com/SaveForWeb/1.0/">
	<!ENTITY ns_custom "http://ns.adobe.com/GenericCustomNamespace/1.0/">
	<!ENTITY ns_adobe_xpath "http://ns.adobe.com/XPath/1.0/">
]>
<svg version="1.1"
	 id="svg10" xmlns:x="&ns_extend;" xmlns:i="&ns_ai;" xmlns:graph="&ns_graphs;" xmlns:cc="http://creativecommons.org/ns#" xmlns:dc="http://purl.org/dc/elements/1.1/" xmlns:inkscape="http://www.inkscape.org/namespaces/inkscape" xmlns:rdf="http://www.w3.org/1999/02/22-rdf-syntax-ns#" xmlns:sodipodi="http://sodipodi.sourceforge.net/DTD/sodipodi-0.dtd" xmlns:svg="http://www.w3.org/2000/svg"
	 xmlns="http://www.w3.org/2000/svg" xmlns:xlink="http://www.w3.org/1999/xlink" x="0px" y="0px" viewBox="0 0 464.8 464.8"
	 style="enable-background:new 0 0 464.8 464.8;" xml:space="preserve">
<style type="text/css">
	.st0{fill:#1972E6;}
	.st1{fill:#1759BB;}
	.st2{fill:#FFFFFF;}
</style>
<metadata  id="metadata16">
	<rdf:RDF>
		<cc:Work  rdf:about="">
			<dc:format>image/svg+xml</dc:format>
			<dc:type  rdf:resource="http://purl.org/dc/dcmitype/StillImage"></dc:type>
			<dc:title></dc:title>
		</cc:Work>
	</rdf:RDF>
	<sfw  xmlns="&ns_sfw;">
		<slices></slices>
		<sliceSourceBounds  bottomLeftOrigin="true" height="464.8" width="464.8" x="-101.1" y="22.4"></sliceSourceBounds>
	</sfw>
</metadata>
<g>
	<circle class="st0" cx="232.4" cy="232.4" r="232.4"/>
	<g>
		<g>
			<path class="st1" d="M343.9,333.4v-19.7c0-6.8-2.4-13.5-6.8-18.7c-4.1-4.9-9.4-10.6-13.7-13.9c-19-14.4-46.8-23.6-79.5-26.3
				c-11.9-1-16.2-0.9-28.5,0.5c-39.2,4.5-69.2,18.1-84.8,38.4c-0.6,0.8-1.2,1.5-1.7,2.2c-3.9,5.1-6,11.3-6,17.7v19.9
				c0,16.9,13.7,30.6,30.6,30.6h159.9C330.2,363.9,343.9,350.2,343.9,333.4z"/>
			<circle class="st1" cx="232.4" cy="174.5" r="51"/>
		</g>
		<g>
			<path class="st2" d="M343.9,320.4v-19.7c0-6.8-2.4-13.5-6.8-18.7c-4.1-4.9-9.4-10.6-13.7-13.9c-19-14.4-46.8-23.6-79.5-26.3
				c-11.9-1-16.2-0.9-28.5,0.5c-39.2,4.5-69.2,18.1-84.8,38.4c-0.6,0.8-1.2,1.5-1.7,2.2c-3.9,5.1-6,11.3-6,17.7v19.9
				c0,16.9,13.7,30.6,30.6,30.6h159.9C330.2,351,343.9,337.3,343.9,320.4z"/>
			<circle class="st2" cx="232.4" cy="161.5" r="51"/>
		</g>
	</g>
</g>
</svg>
