<svg version="1.1" id="Layer_1" xmlns="http://www.w3.org/2000/svg" xmlns:xlink="http://www.w3.org/1999/xlink" viewBox="0 0 26 26">
    <path  fill="white" d="M 3 0 C 1.90625 0 1 0.90625 1 2 L 1 24 C 1 25.09375 1.90625 26 3 26 L 23 26 C 24.09375 26 25 25.09375 25 24 L 25 2 C 25 0.90625 24.09375 0 23 0 Z M 3 2 L 23 2 L 23 24 L 3 24 Z M 6 7 L 6 9 L 8 9 L 8 7 Z M 10 7 L 10 9 L 20 9 L 20 7 Z M 6 12 L 6 14 L 8 14 L 8 12 Z M 10 12 L 10 14 L 20 14 L 20 12 Z M 6 17 L 6 19 L 8 19 L 8 17 Z M 10 17 L 10 19 L 20 19 L 20 17 Z"></path>
</svg>