<?xml version="1.0" encoding="iso-8859-1"?>
<!-- Generator: Adobe Illustrator 19.0.0, SVG Export Plug-In . SVG Version: 6.00 Build 0)  -->
<svg version="1.1" id="Layer_1" xmlns="http://www.w3.org/2000/svg" xmlns:xlink="http://www.w3.org/1999/xlink" x="0px" y="0px"
	 viewBox="0 0 512 512" style="enable-background:new 0 0 512 512;" xml:space="preserve">
<g>
	<g>
		<path style="fill:white;" d="M256,0C114.837,0,0,114.837,0,256s114.837,256,256,256s256-114.837,256-256S397.163,0,256,0z M384,277.333H277.333V384
			c0,11.776-9.557,21.333-21.333,21.333s-21.333-9.557-21.333-21.333V277.333H128.043c-11.776,0-21.333-9.557-21.333-21.333
			s9.557-21.333,21.333-21.333h106.624V128c0-11.776,9.557-21.333,21.333-21.333s21.333,9.557,21.333,21.333v106.667H384
			c11.776,0,21.333,9.557,21.333,21.333S395.776,277.333,384,277.333z"/>
	</g>
</g>
<g>
</g>
<g>
</g>
<g>
</g>
<g>
</g>
<g>
</g>
<g>
</g>
<g>
</g>
<g>
</g>
<g>
</g>
<g>
</g>
<g>
</g>
<g>
</g>
<g>
</g>
<g>
</g>
<g>
</g>
</svg>
